<?xml version="1.0" encoding="UTF-8" standalone="no"?>
<svg
   xmlns:dc="http://purl.org/dc/elements/1.1/"
   xmlns:cc="http://creativecommons.org/ns#"
   xmlns:rdf="http://www.w3.org/1999/02/22-rdf-syntax-ns#"
   xmlns:svg="http://www.w3.org/2000/svg"
   xmlns="http://www.w3.org/2000/svg"
   xmlns:sodipodi="http://sodipodi.sourceforge.net/DTD/sodipodi-0.dtd"
   xmlns:inkscape="http://www.inkscape.org/namespaces/inkscape"
   width="297mm"
   height="210mm"
   viewBox="0 0 297 210"
   version="1.1"
   id="svg8"
   inkscape:version="1.0.2 (e86c870879, 2021-01-15, custom)"
   sodipodi:docname="Logo Portfolio 1.svg">
  <defs
     id="defs2" />
  <sodipodi:namedview
     id="base"
     pagecolor="#ffffff"
     bordercolor="#666666"
     borderopacity="1.0"
     inkscape:pageopacity="0.0"
     inkscape:pageshadow="2"
     inkscape:zoom="0.7"
     inkscape:cx="535.15673"
     inkscape:cy="341.24972"
     inkscape:document-units="mm"
     inkscape:current-layer="layer1"
     inkscape:document-rotation="0"
     showgrid="false"
     inkscape:window-width="1366"
     inkscape:window-height="705"
     inkscape:window-x="-8"
     inkscape:window-y="-8"
     inkscape:window-maximized="1" />
  <metadata
     id="metadata5">
    <rdf:RDF>
      <cc:Work
         rdf:about="">
        <dc:format>image/svg+xml</dc:format>
        <dc:type
           rdf:resource="http://purl.org/dc/dcmitype/StillImage" />
        <dc:title></dc:title>
      </cc:Work>
    </rdf:RDF>
  </metadata>
  <g
     inkscape:label="Calque 1"
     inkscape:groupmode="layer"
     id="layer1">
    <rect
       style="fill:#1bbc9b;fill-opacity:1;stroke:#00b300;stroke-width:0.264583;stroke-opacity:0.341463"
       id="rect833"
       width="214.88469"
       height="120.27127"
       x="37.952274"
       y="26.192413"
       ry="4.1086245" />
    <rect
       style="fill:#010403;fill-opacity:1;stroke:#010101;stroke-width:0.264583;stroke-opacity:1"
       id="rect835"
       width="195.26331"
       height="98.889732"
       x="48.173367"
       y="37.417732"
       ry="1.0848138" />
    <rect
       style="fill:#019d70;fill-opacity:1;stroke:#01ac01;stroke-width:0.264583;stroke-opacity:1"
       id="rect837"
       width="142.18739"
       height="66.817383"
       x="56.66114"
       y="45.970356"
       ry="1.0690784" />
    <rect
       style="fill:#018270;fill-opacity:1;stroke:#018270;stroke-width:0.264087;stroke-opacity:1"
       id="rect847"
       width="142.18739"
       height="9.2057362"
       x="56.66114"
       y="45.970356"
       ry="1.069078" />
    <rect
       style="fill:#01b6c6;fill-opacity:1;stroke:#018270;stroke-width:0.264583;stroke-opacity:1"
       id="rect849"
       width="127.75483"
       height="52.384827"
       x="102.6315"
       y="77.508163"
       ry="1.069078" />
    <rect
       style="fill:#1ba0ac;fill-opacity:1;stroke:#1ba0ac;stroke-width:0.264583;stroke-opacity:1"
       id="rect851"
       width="127.75482"
       height="9.2057419"
       x="102.6315"
       y="77.508163"
       ry="1.069078" />
    <circle
       style="fill:#020a0b;fill-opacity:1;stroke:#018270;stroke-width:0.264583;stroke-opacity:1"
       id="path853"
       sodipodi:type="arc"
       sodipodi:cx="147.26552"
       sodipodi:cy="31.805075"
       sodipodi:rx="4.0090427"
       sodipodi:ry="4.0090427"
       sodipodi:start="0"
       sodipodi:end="6.2733766"
       sodipodi:open="true"
       sodipodi:arc-type="arc"
       d="m 151.27456,31.805075 a 4.0090427,4.0090427 0 0 1 -3.99921,4.00903 4.0090427,4.0090427 0 0 1 -4.01883,-3.989369 4.0090427,4.0090427 0 0 1 3.97951,-4.028596 4.0090427,4.0090427 0 0 1 4.03834,3.969612" />
    <circle
       style="fill:#c70a0b;fill-opacity:1;stroke:#bc0a0b;stroke-width:0.264583;stroke-opacity:1"
       id="path1460"
       sodipodi:type="arc"
       sodipodi:cx="61.232143"
       sodipodi:cy="50.36533"
       sodipodi:rx="2.2678571"
       sodipodi:ry="2.1733632"
       sodipodi:start="0"
       sodipodi:end="6.2733766"
       sodipodi:open="true"
       sodipodi:arc-type="arc"
       d="m 63.5,50.36533 a 2.2678571,2.1733632 0 0 1 -2.262295,2.173356 2.2678571,2.1733632 0 0 1 -2.273391,-2.162697 2.2678571,2.1733632 0 0 1 2.251146,-2.183964 2.2678571,2.1733632 0 0 1 2.284431,2.151987" />
    <circle
       style="fill:#f4f20b;fill-opacity:1;stroke:#f4f20b;stroke-width:0.264583;stroke-opacity:1"
       id="circle1462"
       sodipodi:type="arc"
       sodipodi:cx="69.16964"
       sodipodi:cy="50.36533"
       sodipodi:rx="2.2678571"
       sodipodi:ry="2.1733632"
       sodipodi:start="0"
       sodipodi:end="6.2733766"
       sodipodi:open="true"
       sodipodi:arc-type="arc"
       d="m 71.437497,50.36533 a 2.2678571,2.1733632 0 0 1 -2.262296,2.173356 2.2678571,2.1733632 0 0 1 -2.273391,-2.162697 2.2678571,2.1733632 0 0 1 2.251146,-2.183964 2.2678571,2.1733632 0 0 1 2.284432,2.151987" />
    <circle
       style="fill:#c70a0b;fill-opacity:1;stroke:#bc0a0b;stroke-width:0.264583;stroke-opacity:1"
       id="circle1464"
       sodipodi:type="arc"
       sodipodi:cx="107.34524"
       sodipodi:cy="81.926338"
       sodipodi:rx="2.2678571"
       sodipodi:ry="2.1733632"
       sodipodi:start="0"
       sodipodi:end="6.2733766"
       sodipodi:open="true"
       sodipodi:arc-type="arc"
       d="m 109.61309,81.926338 a 2.2678571,2.1733632 0 0 1 -2.26229,2.173357 2.2678571,2.1733632 0 0 1 -2.27339,-2.162698 2.2678571,2.1733632 0 0 1 2.25114,-2.183963 2.2678571,2.1733632 0 0 1 2.28444,2.151987" />
    <circle
       style="fill:#0fc70a;fill-opacity:1;stroke:#0fc70a;stroke-width:0.264583;stroke-opacity:1"
       id="circle1466"
       sodipodi:type="arc"
       sodipodi:cx="77.10714"
       sodipodi:cy="50.36533"
       sodipodi:rx="2.2678571"
       sodipodi:ry="2.1733632"
       sodipodi:start="0"
       sodipodi:end="6.2733766"
       sodipodi:open="true"
       sodipodi:arc-type="arc"
       d="m 79.374997,50.36533 a 2.2678571,2.1733632 0 0 1 -2.262296,2.173356 2.2678571,2.1733632 0 0 1 -2.273391,-2.162697 2.2678571,2.1733632 0 0 1 2.251146,-2.183964 2.2678571,2.1733632 0 0 1 2.284432,2.151987" />
    <circle
       style="fill:#f4f20b;fill-opacity:1;stroke:#f4f20b;stroke-width:0.264583;stroke-opacity:1"
       id="circle1468"
       sodipodi:type="arc"
       sodipodi:cx="115.47173"
       sodipodi:cy="81.926346"
       sodipodi:rx="2.2678571"
       sodipodi:ry="2.1733632"
       sodipodi:start="0"
       sodipodi:end="6.2733766"
       sodipodi:open="true"
       sodipodi:arc-type="arc"
       d="m 117.73959,81.926346 a 2.2678571,2.1733632 0 0 1 -2.2623,2.173356 2.2678571,2.1733632 0 0 1 -2.27339,-2.162697 2.2678571,2.1733632 0 0 1 2.25115,-2.183964 2.2678571,2.1733632 0 0 1 2.28443,2.151987" />
    <circle
       style="fill:#0fc70a;fill-opacity:1;stroke:#0fc70a;stroke-width:0.264583;stroke-opacity:1"
       id="circle1470"
       sodipodi:type="arc"
       sodipodi:cx="123.59822"
       sodipodi:cy="81.926346"
       sodipodi:rx="2.2678571"
       sodipodi:ry="2.1733632"
       sodipodi:start="0"
       sodipodi:end="6.2733766"
       sodipodi:open="true"
       sodipodi:arc-type="arc"
       d="m 125.86608,81.926346 a 2.2678571,2.1733632 0 0 1 -2.2623,2.173356 2.2678571,2.1733632 0 0 1 -2.27339,-2.162697 2.2678571,2.1733632 0 0 1 2.25115,-2.183964 2.2678571,2.1733632 0 0 1 2.28443,2.151987" />
    <path
       id="rect2104"
       style="fill:#1bbc9b;fill-opacity:1;stroke:#1bbc9b;stroke-width:0.264583;stroke-opacity:1"
       d="M 38.481441,145.40535 H 252.33691 l 26.9875,30.16251 H 11.493941 Z"
       sodipodi:nodetypes="ccccc" />
    <rect
       style="fill:#1bbc9b;fill-opacity:1;stroke:#1bbc9b;stroke-width:0.264583;stroke-opacity:1"
       id="rect2110"
       width="267.83038"
       height="7.7505951"
       x="11.493941"
       y="175.56786"
       ry="1.5119047" />
    <rect
       style="fill:#1bbc9b;fill-opacity:1;stroke:#1bbc9b;stroke-width:0.264583;stroke-opacity:1"
       id="rect2115"
       width="0.37797621"
       height="3.7797618"
       x="148.92261"
       y="175.75893"
       ry="0.1889881" />
    <path
       id="rect2120"
       style="fill:#1b9f9b;fill-opacity:1;stroke:#1bbc9b;stroke-width:0.264583;stroke-opacity:1"
       d="m 48.75893,145.14285 h 193.14584 c 0.83759,0 0.94713,0.89335 1.5119,1.51191 l 15.875,17.3869 c 0.56476,0.61855 -16.54931,1.5119 -17.3869,1.5119 H 48.75893 c -0.837595,0 -17.951666,-0.89335 -17.386905,-1.5119 l 15.875,-17.3869 c 0.564768,-0.61856 0.67431,-1.51191 1.511905,-1.51191 z"
       sodipodi:nodetypes="sssssssss" />
    <text
       xml:space="preserve"
       style="font-size:9.87777778px;line-height:1.25;font-family:'BankGothic Md BT';-inkscape-font-specification:'BankGothic Md BT';stroke-width:0.264583;fill:#fafafa;fill-opacity:1;"
       x="60.476189"
       y="65.389877"
       id="text863"><tspan
         sodipodi:role="line"
         id="tspan861"
         x="60.476189"
         y="65.389877"
         style="stroke-width:0.264583;fill:#fafafa;fill-opacity:1;font-size:9.87777778px;">SOLEYMANE LATRECHE</tspan></text>
    <text
       xml:space="preserve"
       style="font-size:10.5833px;line-height:1.25;font-family:'BankGothic Md BT';-inkscape-font-specification:'BankGothic Md BT';fill:#f80000;fill-opacity:1;stroke-width:0.264583"
       x="107.72321"
       y="97.895836"
       id="text867"><tspan
         sodipodi:role="line"
         x="107.72321"
         y="97.895836"
         style="fill:#f80000;fill-opacity:1;stroke-width:0.264583"
         dx="0 0 0 0 0 0 0 0 0 0 0 0 0 0 0 0 0 0 0 0"
         id="tspan881"><tspan
           dx="0"
           id="tspan871"
           style="letter-spacing:-0.0222339;fill:#f80000;fill-opacity:1;stroke-width:0.264583">&lt;integrateur web&gt;</tspan></tspan></text>
  </g>
</svg>
